<mxfile host="app.diagrams.net" modified="2023-12-29T14:52:49.044Z" agent="Mozilla/5.0 (Windows NT 10.0; Win64; x64) AppleWebKit/537.36 (KHTML, like Gecko) Chrome/120.0.0.0 Safari/537.36" etag="e3VMHTUSmjRJacikSNQw" version="22.1.16" type="device">
  <diagram id="C5RBs43oDa-KdzZeNtuy" name="Page-1">
    <mxGraphModel dx="1240" dy="2910" grid="1" gridSize="10" guides="1" tooltips="1" connect="1" arrows="1" fold="1" page="1" pageScale="1" pageWidth="827" pageHeight="1169" math="0" shadow="0">
      <root>
        <mxCell id="WIyWlLk6GJQsqaUBKTNV-0" />
        <mxCell id="WIyWlLk6GJQsqaUBKTNV-1" parent="WIyWlLk6GJQsqaUBKTNV-0" />
        <mxCell id="xnHSvdLX7KUiaVvNhR9q-0" value="&lt;font style=&quot;font-size: 8px;&quot;&gt;User&lt;/font&gt;" style="swimlane;fontStyle=1;align=center;verticalAlign=top;childLayout=stackLayout;horizontal=1;startSize=26;horizontalStack=0;resizeParent=1;resizeParentMax=0;resizeLast=0;collapsible=1;marginBottom=0;whiteSpace=wrap;html=1;fontSize=16;" parent="WIyWlLk6GJQsqaUBKTNV-1" vertex="1">
          <mxGeometry x="40" y="-2310" width="130" height="560" as="geometry" />
        </mxCell>
        <mxCell id="xnHSvdLX7KUiaVvNhR9q-1" value="&lt;font style=&quot;font-size: 8px;&quot;&gt;- Nickname: String&amp;nbsp;&lt;br&gt;- Password: String&amp;nbsp;&lt;br&gt;- Name: String&amp;nbsp;&lt;br&gt;- Surname: String&lt;br&gt;- Age: String&amp;nbsp;&lt;br&gt;- EMail: String&amp;nbsp;&lt;br&gt;- ImagePath: String&lt;/font&gt;" style="text;strokeColor=none;fillColor=none;align=left;verticalAlign=top;spacingLeft=4;spacingRight=4;overflow=hidden;rotatable=0;points=[[0,0.5],[1,0.5]];portConstraint=eastwest;whiteSpace=wrap;html=1;fontSize=16;" parent="xnHSvdLX7KUiaVvNhR9q-0" vertex="1">
          <mxGeometry y="26" width="130" height="150" as="geometry" />
        </mxCell>
        <mxCell id="xnHSvdLX7KUiaVvNhR9q-2" value="" style="line;strokeWidth=1;fillColor=none;align=left;verticalAlign=middle;spacingTop=-1;spacingLeft=3;spacingRight=3;rotatable=0;labelPosition=right;points=[];portConstraint=eastwest;strokeColor=inherit;fontSize=16;" parent="xnHSvdLX7KUiaVvNhR9q-0" vertex="1">
          <mxGeometry y="176" width="130" height="4" as="geometry" />
        </mxCell>
        <mxCell id="xnHSvdLX7KUiaVvNhR9q-3" value="&lt;font style=&quot;font-size: 8px;&quot;&gt;User(nickname: String,&lt;br&gt;&lt;/font&gt;&lt;blockquote style=&quot;margin: 0 0 0 40px; border: none; padding: 0px;&quot;&gt;&lt;font style=&quot;font-size: 8px;&quot;&gt;password: String,&lt;br&gt;name: String,&lt;br&gt;surname: String,&lt;br&gt;age: String,&lt;br&gt;eMail: String)&lt;/font&gt;&lt;/blockquote&gt;&lt;font style=&quot;font-size: 8px;&quot;&gt;User(nickname: String,&lt;br&gt;&lt;/font&gt;&lt;blockquote style=&quot;margin: 0 0 0 40px; border: none; padding: 0px;&quot;&gt;&lt;font style=&quot;font-size: 8px;&quot;&gt;password: String,&lt;br&gt;name: String,&lt;br&gt;surname: String,&lt;br&gt;age: String,&lt;br&gt;eMail: String,&lt;br&gt;imagePath: String)&lt;/font&gt;&lt;/blockquote&gt;&lt;font style=&quot;font-size: 8px;&quot;&gt;getNickname(): String&lt;br&gt;setImagePath(&lt;br&gt;&lt;span style=&quot;white-space: pre;&quot;&gt;&#x9;&lt;/span&gt;imagePath:String): void&lt;br&gt;UserValidator(): void&lt;br&gt;UserHistoryChecker(): void&lt;br&gt;UserSaver(): void&lt;/font&gt;" style="text;strokeColor=none;fillColor=none;align=left;verticalAlign=top;spacingLeft=4;spacingRight=4;overflow=hidden;rotatable=0;points=[[0,0.5],[1,0.5]];portConstraint=eastwest;whiteSpace=wrap;html=1;fontSize=16;" parent="xnHSvdLX7KUiaVvNhR9q-0" vertex="1">
          <mxGeometry y="180" width="130" height="380" as="geometry" />
        </mxCell>
        <mxCell id="xnHSvdLX7KUiaVvNhR9q-5" value="&lt;font style=&quot;font-size: 8px;&quot;&gt;InvalidUserLogin&lt;/font&gt;" style="swimlane;fontStyle=1;align=center;verticalAlign=top;childLayout=stackLayout;horizontal=1;startSize=26;horizontalStack=0;resizeParent=1;resizeParentMax=0;resizeLast=0;collapsible=1;marginBottom=0;whiteSpace=wrap;html=1;fontSize=16;" parent="WIyWlLk6GJQsqaUBKTNV-1" vertex="1">
          <mxGeometry x="326" y="-2200" width="100" height="90" as="geometry" />
        </mxCell>
        <mxCell id="xnHSvdLX7KUiaVvNhR9q-6" value="&lt;font style=&quot;font-size: 8px;&quot;&gt;+ field: type&lt;/font&gt;" style="text;strokeColor=none;fillColor=none;align=left;verticalAlign=top;spacingLeft=4;spacingRight=4;overflow=hidden;rotatable=0;points=[[0,0.5],[1,0.5]];portConstraint=eastwest;whiteSpace=wrap;html=1;fontSize=16;" parent="xnHSvdLX7KUiaVvNhR9q-5" vertex="1">
          <mxGeometry y="26" width="100" height="26" as="geometry" />
        </mxCell>
        <mxCell id="xnHSvdLX7KUiaVvNhR9q-7" value="" style="line;strokeWidth=1;fillColor=none;align=left;verticalAlign=middle;spacingTop=-1;spacingLeft=3;spacingRight=3;rotatable=0;labelPosition=right;points=[];portConstraint=eastwest;strokeColor=inherit;fontSize=16;" parent="xnHSvdLX7KUiaVvNhR9q-5" vertex="1">
          <mxGeometry y="52" width="100" height="8" as="geometry" />
        </mxCell>
        <mxCell id="xnHSvdLX7KUiaVvNhR9q-8" value="&lt;font style=&quot;font-size: 8px;&quot;&gt;+ method(type): type&lt;/font&gt;" style="text;strokeColor=none;fillColor=none;align=left;verticalAlign=top;spacingLeft=4;spacingRight=4;overflow=hidden;rotatable=0;points=[[0,0.5],[1,0.5]];portConstraint=eastwest;whiteSpace=wrap;html=1;fontSize=16;" parent="xnHSvdLX7KUiaVvNhR9q-5" vertex="1">
          <mxGeometry y="60" width="100" height="30" as="geometry" />
        </mxCell>
        <mxCell id="g2EoD0nC0MqTellOUq4Z-4" value="&lt;font style=&quot;font-size: 8px;&quot;&gt;InvalidNicknameException&lt;/font&gt;" style="swimlane;fontStyle=1;align=center;verticalAlign=top;childLayout=stackLayout;horizontal=1;startSize=26;horizontalStack=0;resizeParent=1;resizeParentMax=0;resizeLast=0;collapsible=1;marginBottom=0;whiteSpace=wrap;html=1;fontSize=16;" vertex="1" parent="WIyWlLk6GJQsqaUBKTNV-1">
          <mxGeometry x="440" y="-2200" width="100" height="90" as="geometry" />
        </mxCell>
        <mxCell id="g2EoD0nC0MqTellOUq4Z-5" value="&lt;font style=&quot;font-size: 8px;&quot;&gt;+ field: type&lt;/font&gt;" style="text;strokeColor=none;fillColor=none;align=left;verticalAlign=top;spacingLeft=4;spacingRight=4;overflow=hidden;rotatable=0;points=[[0,0.5],[1,0.5]];portConstraint=eastwest;whiteSpace=wrap;html=1;fontSize=16;" vertex="1" parent="g2EoD0nC0MqTellOUq4Z-4">
          <mxGeometry y="26" width="100" height="26" as="geometry" />
        </mxCell>
        <mxCell id="g2EoD0nC0MqTellOUq4Z-6" value="" style="line;strokeWidth=1;fillColor=none;align=left;verticalAlign=middle;spacingTop=-1;spacingLeft=3;spacingRight=3;rotatable=0;labelPosition=right;points=[];portConstraint=eastwest;strokeColor=inherit;fontSize=16;" vertex="1" parent="g2EoD0nC0MqTellOUq4Z-4">
          <mxGeometry y="52" width="100" height="8" as="geometry" />
        </mxCell>
        <mxCell id="g2EoD0nC0MqTellOUq4Z-7" value="&lt;font style=&quot;font-size: 8px;&quot;&gt;+ method(type): type&lt;/font&gt;" style="text;strokeColor=none;fillColor=none;align=left;verticalAlign=top;spacingLeft=4;spacingRight=4;overflow=hidden;rotatable=0;points=[[0,0.5],[1,0.5]];portConstraint=eastwest;whiteSpace=wrap;html=1;fontSize=16;" vertex="1" parent="g2EoD0nC0MqTellOUq4Z-4">
          <mxGeometry y="60" width="100" height="30" as="geometry" />
        </mxCell>
        <mxCell id="g2EoD0nC0MqTellOUq4Z-8" value="&lt;font style=&quot;font-size: 8px;&quot;&gt;OccupiedUserException&lt;/font&gt;" style="swimlane;fontStyle=1;align=center;verticalAlign=top;childLayout=stackLayout;horizontal=1;startSize=26;horizontalStack=0;resizeParent=1;resizeParentMax=0;resizeLast=0;collapsible=1;marginBottom=0;whiteSpace=wrap;html=1;fontSize=16;" vertex="1" parent="WIyWlLk6GJQsqaUBKTNV-1">
          <mxGeometry x="210" y="-2200" width="100" height="90" as="geometry" />
        </mxCell>
        <mxCell id="g2EoD0nC0MqTellOUq4Z-9" value="&lt;font style=&quot;font-size: 8px;&quot;&gt;+ field: type&lt;/font&gt;" style="text;strokeColor=none;fillColor=none;align=left;verticalAlign=top;spacingLeft=4;spacingRight=4;overflow=hidden;rotatable=0;points=[[0,0.5],[1,0.5]];portConstraint=eastwest;whiteSpace=wrap;html=1;fontSize=16;" vertex="1" parent="g2EoD0nC0MqTellOUq4Z-8">
          <mxGeometry y="26" width="100" height="26" as="geometry" />
        </mxCell>
        <mxCell id="g2EoD0nC0MqTellOUq4Z-10" value="" style="line;strokeWidth=1;fillColor=none;align=left;verticalAlign=middle;spacingTop=-1;spacingLeft=3;spacingRight=3;rotatable=0;labelPosition=right;points=[];portConstraint=eastwest;strokeColor=inherit;fontSize=16;" vertex="1" parent="g2EoD0nC0MqTellOUq4Z-8">
          <mxGeometry y="52" width="100" height="8" as="geometry" />
        </mxCell>
        <mxCell id="g2EoD0nC0MqTellOUq4Z-11" value="&lt;font style=&quot;font-size: 8px;&quot;&gt;+ method(type): type&lt;/font&gt;" style="text;strokeColor=none;fillColor=none;align=left;verticalAlign=top;spacingLeft=4;spacingRight=4;overflow=hidden;rotatable=0;points=[[0,0.5],[1,0.5]];portConstraint=eastwest;whiteSpace=wrap;html=1;fontSize=16;" vertex="1" parent="g2EoD0nC0MqTellOUq4Z-8">
          <mxGeometry y="60" width="100" height="30" as="geometry" />
        </mxCell>
        <mxCell id="g2EoD0nC0MqTellOUq4Z-12" value="&lt;font style=&quot;font-size: 8px;&quot;&gt;Mainframe&lt;/font&gt;" style="swimlane;fontStyle=1;align=center;verticalAlign=top;childLayout=stackLayout;horizontal=1;startSize=26;horizontalStack=0;resizeParent=1;resizeParentMax=0;resizeLast=0;collapsible=1;marginBottom=0;whiteSpace=wrap;html=1;fontSize=16;" vertex="1" parent="WIyWlLk6GJQsqaUBKTNV-1">
          <mxGeometry x="240" y="-1960" width="100" height="90" as="geometry" />
        </mxCell>
        <mxCell id="g2EoD0nC0MqTellOUq4Z-13" value="&lt;font style=&quot;font-size: 8px;&quot;&gt;+ field: type&lt;/font&gt;" style="text;strokeColor=none;fillColor=none;align=left;verticalAlign=top;spacingLeft=4;spacingRight=4;overflow=hidden;rotatable=0;points=[[0,0.5],[1,0.5]];portConstraint=eastwest;whiteSpace=wrap;html=1;fontSize=16;" vertex="1" parent="g2EoD0nC0MqTellOUq4Z-12">
          <mxGeometry y="26" width="100" height="26" as="geometry" />
        </mxCell>
        <mxCell id="g2EoD0nC0MqTellOUq4Z-14" value="" style="line;strokeWidth=1;fillColor=none;align=left;verticalAlign=middle;spacingTop=-1;spacingLeft=3;spacingRight=3;rotatable=0;labelPosition=right;points=[];portConstraint=eastwest;strokeColor=inherit;fontSize=16;" vertex="1" parent="g2EoD0nC0MqTellOUq4Z-12">
          <mxGeometry y="52" width="100" height="8" as="geometry" />
        </mxCell>
        <mxCell id="g2EoD0nC0MqTellOUq4Z-15" value="&lt;font style=&quot;font-size: 8px;&quot;&gt;+ method(type): type&lt;/font&gt;" style="text;strokeColor=none;fillColor=none;align=left;verticalAlign=top;spacingLeft=4;spacingRight=4;overflow=hidden;rotatable=0;points=[[0,0.5],[1,0.5]];portConstraint=eastwest;whiteSpace=wrap;html=1;fontSize=16;" vertex="1" parent="g2EoD0nC0MqTellOUq4Z-12">
          <mxGeometry y="60" width="100" height="30" as="geometry" />
        </mxCell>
        <mxCell id="g2EoD0nC0MqTellOUq4Z-16" value="&lt;font style=&quot;font-size: 8px;&quot;&gt;UserSignUp&lt;/font&gt;" style="swimlane;fontStyle=1;align=center;verticalAlign=top;childLayout=stackLayout;horizontal=1;startSize=26;horizontalStack=0;resizeParent=1;resizeParentMax=0;resizeLast=0;collapsible=1;marginBottom=0;whiteSpace=wrap;html=1;fontSize=16;" vertex="1" parent="WIyWlLk6GJQsqaUBKTNV-1">
          <mxGeometry x="360" y="-1960" width="100" height="90" as="geometry" />
        </mxCell>
        <mxCell id="g2EoD0nC0MqTellOUq4Z-17" value="&lt;font style=&quot;font-size: 8px;&quot;&gt;+ field: type&lt;/font&gt;" style="text;strokeColor=none;fillColor=none;align=left;verticalAlign=top;spacingLeft=4;spacingRight=4;overflow=hidden;rotatable=0;points=[[0,0.5],[1,0.5]];portConstraint=eastwest;whiteSpace=wrap;html=1;fontSize=16;" vertex="1" parent="g2EoD0nC0MqTellOUq4Z-16">
          <mxGeometry y="26" width="100" height="26" as="geometry" />
        </mxCell>
        <mxCell id="g2EoD0nC0MqTellOUq4Z-18" value="" style="line;strokeWidth=1;fillColor=none;align=left;verticalAlign=middle;spacingTop=-1;spacingLeft=3;spacingRight=3;rotatable=0;labelPosition=right;points=[];portConstraint=eastwest;strokeColor=inherit;fontSize=16;" vertex="1" parent="g2EoD0nC0MqTellOUq4Z-16">
          <mxGeometry y="52" width="100" height="8" as="geometry" />
        </mxCell>
        <mxCell id="g2EoD0nC0MqTellOUq4Z-19" value="&lt;font style=&quot;font-size: 8px;&quot;&gt;+ method(type): type&lt;/font&gt;" style="text;strokeColor=none;fillColor=none;align=left;verticalAlign=top;spacingLeft=4;spacingRight=4;overflow=hidden;rotatable=0;points=[[0,0.5],[1,0.5]];portConstraint=eastwest;whiteSpace=wrap;html=1;fontSize=16;" vertex="1" parent="g2EoD0nC0MqTellOUq4Z-16">
          <mxGeometry y="60" width="100" height="30" as="geometry" />
        </mxCell>
        <mxCell id="g2EoD0nC0MqTellOUq4Z-20" value="&lt;font style=&quot;font-size: 8px;&quot;&gt;UserLogIn&lt;/font&gt;" style="swimlane;fontStyle=1;align=center;verticalAlign=top;childLayout=stackLayout;horizontal=1;startSize=26;horizontalStack=0;resizeParent=1;resizeParentMax=0;resizeLast=0;collapsible=1;marginBottom=0;whiteSpace=wrap;html=1;fontSize=16;" vertex="1" parent="WIyWlLk6GJQsqaUBKTNV-1">
          <mxGeometry x="470" y="-1960" width="100" height="90" as="geometry" />
        </mxCell>
        <mxCell id="g2EoD0nC0MqTellOUq4Z-21" value="&lt;font style=&quot;font-size: 8px;&quot;&gt;+ field: type&lt;/font&gt;" style="text;strokeColor=none;fillColor=none;align=left;verticalAlign=top;spacingLeft=4;spacingRight=4;overflow=hidden;rotatable=0;points=[[0,0.5],[1,0.5]];portConstraint=eastwest;whiteSpace=wrap;html=1;fontSize=16;" vertex="1" parent="g2EoD0nC0MqTellOUq4Z-20">
          <mxGeometry y="26" width="100" height="26" as="geometry" />
        </mxCell>
        <mxCell id="g2EoD0nC0MqTellOUq4Z-22" value="" style="line;strokeWidth=1;fillColor=none;align=left;verticalAlign=middle;spacingTop=-1;spacingLeft=3;spacingRight=3;rotatable=0;labelPosition=right;points=[];portConstraint=eastwest;strokeColor=inherit;fontSize=16;" vertex="1" parent="g2EoD0nC0MqTellOUq4Z-20">
          <mxGeometry y="52" width="100" height="8" as="geometry" />
        </mxCell>
        <mxCell id="g2EoD0nC0MqTellOUq4Z-23" value="&lt;font style=&quot;font-size: 8px;&quot;&gt;+ method(type): type&lt;/font&gt;" style="text;strokeColor=none;fillColor=none;align=left;verticalAlign=top;spacingLeft=4;spacingRight=4;overflow=hidden;rotatable=0;points=[[0,0.5],[1,0.5]];portConstraint=eastwest;whiteSpace=wrap;html=1;fontSize=16;" vertex="1" parent="g2EoD0nC0MqTellOUq4Z-20">
          <mxGeometry y="60" width="100" height="30" as="geometry" />
        </mxCell>
        <mxCell id="g2EoD0nC0MqTellOUq4Z-24" value="&lt;font style=&quot;font-size: 8px;&quot;&gt;Mainframe&lt;/font&gt;" style="swimlane;fontStyle=1;align=center;verticalAlign=top;childLayout=stackLayout;horizontal=1;startSize=26;horizontalStack=0;resizeParent=1;resizeParentMax=0;resizeLast=0;collapsible=1;marginBottom=0;whiteSpace=wrap;html=1;fontSize=16;" vertex="1" parent="WIyWlLk6GJQsqaUBKTNV-1">
          <mxGeometry x="590" y="-1960" width="100" height="90" as="geometry" />
        </mxCell>
        <mxCell id="g2EoD0nC0MqTellOUq4Z-25" value="&lt;font style=&quot;font-size: 8px;&quot;&gt;+ field: type&lt;/font&gt;" style="text;strokeColor=none;fillColor=none;align=left;verticalAlign=top;spacingLeft=4;spacingRight=4;overflow=hidden;rotatable=0;points=[[0,0.5],[1,0.5]];portConstraint=eastwest;whiteSpace=wrap;html=1;fontSize=16;" vertex="1" parent="g2EoD0nC0MqTellOUq4Z-24">
          <mxGeometry y="26" width="100" height="26" as="geometry" />
        </mxCell>
        <mxCell id="g2EoD0nC0MqTellOUq4Z-26" value="" style="line;strokeWidth=1;fillColor=none;align=left;verticalAlign=middle;spacingTop=-1;spacingLeft=3;spacingRight=3;rotatable=0;labelPosition=right;points=[];portConstraint=eastwest;strokeColor=inherit;fontSize=16;" vertex="1" parent="g2EoD0nC0MqTellOUq4Z-24">
          <mxGeometry y="52" width="100" height="8" as="geometry" />
        </mxCell>
        <mxCell id="g2EoD0nC0MqTellOUq4Z-27" value="&lt;font style=&quot;font-size: 8px;&quot;&gt;+ method(type): type&lt;/font&gt;" style="text;strokeColor=none;fillColor=none;align=left;verticalAlign=top;spacingLeft=4;spacingRight=4;overflow=hidden;rotatable=0;points=[[0,0.5],[1,0.5]];portConstraint=eastwest;whiteSpace=wrap;html=1;fontSize=16;" vertex="1" parent="g2EoD0nC0MqTellOUq4Z-24">
          <mxGeometry y="60" width="100" height="30" as="geometry" />
        </mxCell>
      </root>
    </mxGraphModel>
  </diagram>
</mxfile>
